#N canvas 1115 614 563 543 12;
#X obj 94 242 oscformat vars freq;
#X obj 208 43 vsl 15 128 0 1024 0 0 empty empty empty 0 -9 0 10 -262144
-1 -1 0 1;
#X obj 103 317 list prepend send;
#X floatatom 235 194 5 0 0 0 - - -;
#X obj 98 358 list trim;
#X obj 111 420 netsend -u -b;
#X obj 286 374 loadbang;
#X msg 286 397 connect localhost 5510;
#X connect 0 0 2 0;
#X connect 1 0 3 0;
#X connect 1 0 0 0;
#X connect 2 0 4 0;
#X connect 4 0 5 0;
#X connect 6 0 7 0;
#X connect 7 0 5 0;
