#N canvas 1115 614 798 760 12;
#X obj 94 242 oscformat vars freq;
#X obj 208 43 vsl 15 128 0 1024 0 0 empty empty empty 0 -9 0 10 -262144
-1 -1 2700 1;
#X obj 158 307 list prepend send;
#X floatatom 235 194 5 0 0 0 - - -;
#X obj 153 348 list trim;
#X obj 111 420 netsend -u -b;
#X obj 286 374 loadbang;
#X msg 286 397 connect localhost 5510;
#X obj 376 231 oscformat vars shape;
#X msg 372 112 sphere;
#X msg 460 131 cube;
#X obj 371 176 list;
#X connect 0 0 2 0;
#X connect 1 0 3 0;
#X connect 1 0 0 0;
#X connect 2 0 4 0;
#X connect 4 0 5 0;
#X connect 6 0 7 0;
#X connect 7 0 5 0;
#X connect 8 0 2 0;
#X connect 9 0 11 0;
#X connect 10 0 11 0;
#X connect 11 0 8 0;
